<svg xmlns="http://www.w3.org/2000/svg" xmlns:xlink="http://www.w3.org/1999/xlink" width="97" height="29" viewBox="0 0 97 29">
    <defs>
        <path id="n2qap215ua" d="M0 0.185L23.327 0.185 23.327 14.729 0 14.729z"/>
        <path id="27kxmxuhyc" d="M0.259 0.156L18.529 0.156 18.529 20.497 0.259 20.497z"/>
    </defs>
    <g fill="none" fill-rule="evenodd">
        <g>
            <g>
                <g>
                    <g transform="translate(-584 -153) translate(584 153) translate(1) translate(0 7.419)">
                        <mask id="5ckbs4wzlb" fill="#fff">
                            <use xlink:href="#n2qap215ua"/>
                        </mask>
                        <path fill="#FFF" d="M19.416 4.794c0-.515-.168-.934-.503-1.256-.336-.322-.764-.483-1.285-.483-.969 0-1.746.428-2.333 1.283-.587.856-1.057 2.149-1.41 3.878L12.46 14.73H8.716l1.537-7.037c.297-1.362.447-2.336.447-2.926 0-.534-.173-.952-.517-1.256-.345-.303-.76-.455-1.243-.455-.988 0-1.765.419-2.333 1.256-.568.837-1.038 2.102-1.41 3.795l-1.453 6.623H0L2.347 3.441c.298-1.38.493-2.355.587-2.925h3.492L6.09 2.42h.056c.54-.773 1.201-1.338 1.984-1.697.782-.359 1.592-.538 2.43-.538.931 0 1.75.253 2.458.759.708.506 1.108 1.155 1.202 1.945h.055c.485-.92 1.202-1.6 2.152-2.042.95-.441 1.908-.662 2.877-.662.726 0 1.396.175 2.011.524.615.35 1.104.824 1.467 1.422s.545 1.246.545 1.945c0 .497-.042.985-.126 1.463-.084.479-.21 1.104-.377 1.877l-1.649 7.313h-3.743l1.509-6.9c.316-1.416.475-2.428.475-3.035" mask="url(#5ckbs4wzlb)"/>
                    </g>
                    <g transform="translate(-584 -153) translate(584 153) translate(1) translate(21.475 7.779)">
                        <mask id="hrqt79hvsd" fill="#fff">
                            <use xlink:href="#27kxmxuhyc"/>
                        </mask>
                        <path fill="#FFF" d="M8.64 10.727h.056L14.423.157h4.106L8.528 16.936c-.745 1.25-1.555 2.157-2.43 2.718-.876.561-1.891.842-3.046.842-.875 0-1.805-.129-2.793-.387l.838-2.814c.577.22 1.127.33 1.649.33.614 0 1.159-.193 1.634-.58.475-.385 1.02-1.048 1.634-1.986L3.472.156h3.827l1.341 10.57z" mask="url(#hrqt79hvsd)"/>
                    </g>
                    <path fill="#FFF" d="M79.997 2.266L76.932 8.35c-1.285-1.022-3.18-1.784-5.183-1.784-4.712 0-6.638 3.484-6.638 5.935 0 1.82 1.198 4.502 5.415 4.502 1.759 0 3.183-.249 4.5-.729L72.16 22.31c-1.601.312-2.134.517-3.486.55-7.527.218-10.574-4.343-10.568-9.01C58.107 7.674 63.671.17 72.88.17c3.863 0 7.118 2.096 7.118 2.096M87.771 6.778l-2.77 6.448h2.854l-.084-6.448zM94.007.005l.966 22.143h-7.155l-.006-3.787h-4.883l-1.597 3.787h-7.769L83.647.005h10.36z" transform="translate(-584 -153) translate(584 153) translate(1)"/>
                    <path fill="#FFF" d="M47.17 12.905l-.96 3.63h2.458c.953 0 2.263-.47 2.588-1.658.322-1.184-.598-1.972-1.563-1.972h-2.524zm2.95-3.913c.724 0 2.018-.19 2.34-1.584.353-1.527-.86-1.57-1.443-1.57l-2.086-.009-.725 3.163h1.913zM53.587.005c3.547.022 5.557 1.924 5.557 4.671 0 2.533-2.121 4.778-4.446 5.931 2.393.869 2.597 3 2.597 4.503 0 3.64-3.696 7.038-8.498 7.038H38.33L44.163.005s6.539-.011 9.425 0z" transform="translate(-584 -153) translate(584 153) translate(1)"/>
                </g>
            </g>
        </g>
    </g>
</svg>
